<svg width="25" height="32" viewBox="0 0 25 32" fill="none" xmlns="http://www.w3.org/2000/svg">
<path d="M5.09625 31.6667C3.68819 31.6667 2.48681 31.1693 1.49208 30.1746C0.497361 29.1799 0 27.9785 0 26.5704V5.41667C0 3.9125 0.526667 2.63361 1.58 1.58C2.63361 0.526666 3.9125 0 5.41667 0H25V23.9742C24.2842 23.9742 23.6725 24.2279 23.165 24.7354C22.6575 25.2429 22.4038 25.8546 22.4038 26.5704C22.4038 27.2862 22.6575 27.8979 23.165 28.4054C23.6725 28.9129 24.2842 29.1667 25 29.1667V31.6667H5.09625ZM2.5 22.2404C2.87833 21.9818 3.28375 21.7894 3.71625 21.6633C4.14903 21.5375 4.60903 21.4746 5.09625 21.4746H6.15375V2.5H5.41667C4.61528 2.5 3.92889 2.78583 3.3575 3.3575C2.78583 3.92889 2.5 4.61528 2.5 5.41667V22.2404ZM8.65375 21.4746H22.5V2.5H8.65375V21.4746ZM5.09625 29.1667H20.67C20.4283 28.7883 20.2403 28.3872 20.1058 27.9633C19.9711 27.5392 19.9038 27.0749 19.9038 26.5704C19.9038 26.094 19.9668 25.6368 20.0929 25.1987C20.219 24.7607 20.4114 24.3525 20.67 23.9742H5.09625C4.35264 23.9742 3.73403 24.2279 3.24042 24.7354C2.74681 25.2429 2.5 25.8546 2.5 26.5704C2.5 27.314 2.74681 27.9326 3.24042 28.4262C3.73403 28.9199 4.35264 29.1667 5.09625 29.1667Z" fill="#2F3760"/>
</svg>
