<svg width="29" height="29" viewBox="0 0 29 29" fill="none" xmlns="http://www.w3.org/2000/svg">
<path d="M7.15144 28.9998V26.441H13.2205V20.595C11.7728 20.3041 10.4934 19.6952 9.3823 18.768C8.27121 17.8406 7.48167 16.6847 7.01369 15.3004C5.0454 15.0664 3.38445 14.231 2.03084 12.794C0.676947 11.3571 0 9.65126 0 7.67643V5.97055C0 5.27285 0.252043 4.67196 0.756128 4.16787C1.26021 3.66379 1.86111 3.41175 2.55881 3.41175H6.52837V0H22.4715V3.41175H26.441C27.1387 3.41175 27.7396 3.66379 28.2437 4.16787C28.7478 4.67196 28.9998 5.27285 28.9998 5.97055V7.67643C28.9998 9.65126 28.3229 11.3571 26.969 12.794C25.6154 14.231 23.9544 15.0664 21.9861 15.3004C21.5182 16.6847 20.7286 17.8406 19.6175 18.768C18.5064 19.6952 17.227 20.3041 15.7793 20.595V26.441H21.8484V28.9998H7.15144ZM6.52837 12.5514V5.97055H2.55881V7.67643C2.55881 8.86627 2.93168 9.91112 3.67743 10.811C4.42319 11.7108 5.3735 12.291 6.52837 12.5514ZM14.4999 18.1415C15.998 18.1415 17.2691 17.6192 18.3134 16.5747C19.3577 15.5304 19.8798 14.2592 19.8798 12.7612V2.55881H9.12002V12.7612C9.12002 14.2592 9.64216 15.5304 10.6864 16.5747C11.7307 17.6192 13.0019 18.1415 14.4999 18.1415ZM22.4715 12.5514C23.6263 12.291 24.5766 11.7108 25.3224 10.811C26.0681 9.91112 26.441 8.86627 26.441 7.67643V5.97055H22.4715V12.5514Z" fill="#2F3760"/>
</svg>
