<svg width="50" height="71" viewBox="0 0 50 71" fill="none" xmlns="http://www.w3.org/2000/svg">
<path d="M9.71185 70.9468C8.28389 70.948 6.87327 70.6339 5.58064 70.0272C4.28801 69.4204 3.14521 68.5359 2.23378 67.4366C1.32236 66.3373 0.664759 65.0505 0.307906 63.6678C-0.0489471 62.2852 -0.0962612 60.8408 0.169339 59.4378C0.434939 58.0347 1.00691 56.7076 1.84444 55.551C2.68197 54.3945 3.76443 53.437 5.01458 52.747C6.26473 52.0569 7.65177 51.6512 9.07674 51.5589C10.5017 51.4666 11.9295 51.6899 13.2582 52.2129C13.7373 52.399 14.2009 52.6226 14.6447 52.8816C15.739 53.5269 16.9743 53.8952 18.2433 53.9544C19.5122 54.0137 20.7765 53.7623 21.9262 53.2219C23.0759 52.6814 24.0762 51.8685 24.8402 50.8535C25.6043 49.8386 26.1089 48.6525 26.3103 47.3982C26.6616 45.2239 27.6035 43.1879 29.0331 41.5124C29.9096 40.4912 30.507 39.2606 30.7673 37.9402C31.0276 36.6198 30.9419 35.2546 30.5185 33.9771C30.0952 32.6997 29.3486 31.5534 28.3513 30.6498C27.3539 29.7462 26.1398 29.116 24.8269 28.8203C24.096 28.6552 23.3788 28.4347 22.6815 28.1605C19.5194 26.9192 16.8897 24.6129 15.2464 21.6398C13.6031 18.6666 13.0492 15.2131 13.6803 11.8752C14.3114 8.53727 16.0878 5.52434 18.7031 3.35634C21.3184 1.18834 24.6085 0.00127324 28.0055 0C30.3806 0.000693718 32.7196 0.581373 34.8192 1.69158C36.9188 2.80178 38.7156 4.40793 40.0533 6.37044C41.3911 8.33294 42.2293 10.5924 42.4952 12.9526C42.7612 15.3127 42.4467 17.7021 41.5792 19.9131C40.8522 21.7802 39.7451 23.476 38.3282 24.8927C37.3758 25.8445 36.6859 27.0266 36.3257 28.324C35.9655 29.6213 35.9472 30.9898 36.2726 32.2964C36.598 33.6029 37.2559 34.803 38.1825 35.7799C39.1091 36.7569 40.2728 37.4773 41.5603 37.8713C41.8556 37.9616 42.1532 38.0652 42.4441 38.18C44.0124 38.7976 45.4319 39.7405 46.6091 40.9467C47.7863 42.1529 48.6945 43.595 49.2737 45.1778C49.8529 46.7606 50.0901 48.4482 49.9695 50.1294C49.8489 51.8105 49.3733 53.447 48.574 54.9309C47.7748 56.4148 46.6701 57.7125 45.3328 58.7383C43.9954 59.7641 42.4558 60.4948 40.8155 60.8822C39.1751 61.2695 37.4713 61.3048 35.8163 60.9856C34.1614 60.6664 32.5929 60 31.2142 59.0304C30.1762 58.2984 28.9751 57.8309 27.7153 57.6686C26.4555 57.5062 25.1751 57.654 23.9854 58.0989C22.7957 58.5439 21.7326 59.2726 20.8884 60.2217C20.0443 61.1709 19.4448 62.3118 19.1418 63.5453C18.6256 65.6563 17.416 67.5329 15.7067 68.8749C13.9974 70.2168 11.8872 70.9464 9.71407 70.9468H9.71185Z" fill="url(#paint0_linear_396_971)"/>
<defs>
<linearGradient id="paint0_linear_396_971" x1="0" y1="0" x2="62.4987" y2="57.3186" gradientUnits="userSpaceOnUse">
<stop offset="0.0439996" stop-color="#FA54D2"/>
<stop offset="0.44771" stop-color="#891DF4"/>
<stop offset="0.63104" stop-color="#495FFF"/>
<stop offset="0.944" stop-color="#40BDFF"/>
</linearGradient>
</defs>
</svg>
