<svg width="24" height="32" viewBox="0 0 24 32" fill="none" xmlns="http://www.w3.org/2000/svg">
<path d="M11.7419 32.0001C10.8945 32.0001 10.1639 31.7065 9.54995 31.1194C8.93602 30.5323 8.60221 29.8151 8.54854 28.9677H14.9353C14.8816 29.8151 14.5478 30.5323 13.9339 31.1194C13.3199 31.7065 12.5893 32.0001 11.7419 32.0001ZM5.4516 26.6449V24.1288H18.0322V26.6449H5.4516ZM5.70951 21.8064C3.95269 20.7139 2.56197 19.2864 1.53735 17.524C0.512451 15.7618 0 13.8345 0 11.7419C0 8.47319 1.13981 5.69902 3.41941 3.41941C5.69902 1.1398 8.47319 0 11.7419 0C15.0106 0 17.7848 1.1398 20.0644 3.41941C22.344 5.69902 23.4838 8.47319 23.4838 11.7419C23.4838 13.8345 22.9714 15.7618 21.9465 17.524C20.9219 19.2864 19.5311 20.7139 17.7743 21.8064H5.70951ZM6.45805 19.2903H17.0258C18.2838 18.3957 19.2553 17.2914 19.9403 15.9774C20.6252 14.6634 20.9677 13.2516 20.9677 11.7419C20.9677 9.16988 20.0731 6.98924 18.2838 5.19999C16.4946 3.41075 14.314 2.51613 11.7419 2.51613C9.16988 2.51613 6.98924 3.41075 5.19999 5.19999C3.41075 6.98924 2.51613 9.16988 2.51613 11.7419C2.51613 13.2516 2.8586 14.6634 3.54354 15.9774C4.22849 17.2914 5.19999 18.3957 6.45805 19.2903Z" fill="#2F3760"/>
</svg>
